<?xml version="1.0" encoding="UTF-8" standalone="no"?>
<!-- Created with Inkscape (http://www.inkscape.org/) -->

<svg
   xmlns:dc="http://purl.org/dc/elements/1.1/"
   xmlns:cc="http://creativecommons.org/ns#"
   xmlns:rdf="http://www.w3.org/1999/02/22-rdf-syntax-ns#"
   xmlns:svg="http://www.w3.org/2000/svg"
   xmlns="http://www.w3.org/2000/svg"
   xmlns:sodipodi="http://sodipodi.sourceforge.net/DTD/sodipodi-0.dtd"
   xmlns:inkscape="http://www.inkscape.org/namespaces/inkscape"
   width="160"
   height="160"
   id="svg2"
   version="1.1"
   inkscape:version="0.48.2 r9819" >
  <defs
     id="defs4" />
  <sodipodi:namedview
     id="base"
     pagecolor="#868686"
     bordercolor="#666666"
     borderopacity="1.0"
     inkscape:pageopacity="0"
     inkscape:pageshadow="2"
     inkscape:zoom="3.6203867"
     inkscape:cx="88.444191"
     inkscape:cy="87.427204"
     inkscape:document-units="px"
     inkscape:current-layer="layer1"
     showgrid="false"
     inkscape:window-width="1024"
     inkscape:window-height="749"
     inkscape:window-x="-4"
     inkscape:window-y="-4"
     inkscape:window-maximized="1" />
  <metadata
     id="metadata7">
    <rdf:RDF>
      <cc:Work
         rdf:about="">
        <dc:format>image/svg+xml</dc:format>
        <dc:type
           rdf:resource="http://purl.org/dc/dcmitype/StillImage" />
        <dc:title></dc:title>
      </cc:Work>
    </rdf:RDF>
  </metadata>
  <g
     inkscape:label="Layer 1"
     inkscape:groupmode="layer"
     id="layer1"
     transform="translate(0,-892.36218)">
    <path
       style="fill:#808080;fill-opacity:1"
       d="M 20.09375 20.21875 C 20.132778 25.343391 20.134934 30.469083 20.15625 35.59375 L 64.625 80.09375 C 49.787263 94.931487 34.962737 109.78731 20.125 124.625 C 20.1159 129.73929 20.095682 134.85448 20.09375 139.96875 L 35.21875 139.96875 C 50.13512 125.05805 65.05238 110.16066 79.96875 95.25 C 94.8794 110.16066 109.80815 125.05805 124.71875 139.96875 L 139.84375 139.96875 L 139.84375 124.84375 C 124.9331 109.92745 110.03565 95.01012 95.125 80.09375 C 110.03565 65.1831 124.9331 50.25435 139.84375 35.34375 L 139.84375 20.21875 L 124.71875 20.21875 L 79.96875 64.96875 C 65.0581 50.0581 50.12935 35.1294 35.21875 20.21875 L 20.09375 20.21875 z "
       transform="translate(0,892.36218)"
       id="path2998" />
  </g>
</svg>
