<?xml version="1.0" encoding="UTF-8" standalone="no"?>
<!-- Created with Inkscape (http://www.inkscape.org/) -->

<svg
   xmlns:dc="http://purl.org/dc/elements/1.1/"
   xmlns:cc="http://creativecommons.org/ns#"
   xmlns:rdf="http://www.w3.org/1999/02/22-rdf-syntax-ns#"
   xmlns:svg="http://www.w3.org/2000/svg"
   xmlns="http://www.w3.org/2000/svg"
   xmlns:xlink="http://www.w3.org/1999/xlink"
   xmlns:sodipodi="http://sodipodi.sourceforge.net/DTD/sodipodi-0.dtd"
   xmlns:inkscape="http://www.inkscape.org/namespaces/inkscape"
   width="360"
   height="360"
   id="svg2"
   version="1.1"
   inkscape:version="0.48.2 r9819"
   sodipodi:docname="cache_type_drive_in_3.svg"
   inkscape:export-filename="E:\Home\Bogus\Pulpit\KESZE\opencaching4locus\res\drawable-ldpi\cache_type_quiz.png"
   inkscape:export-xdpi="3.5"
   inkscape:export-ydpi="3.5">
  <defs
     id="defs4">
    <linearGradient
       id="linearGradient3004">
      <stop
         style="stop-color:#ffffff;stop-opacity:1;"
         offset="0"
         id="stop3006" />
      <stop
         style="stop-color:#ffffff;stop-opacity:1;"
         offset="0.7972362"
         id="stop3008" />
      <stop
         id="stop3010"
         offset="0.82632583"
         style="stop-color:#000016;stop-opacity:1;" />
      <stop
         id="stop3012"
         offset="1"
         style="stop-color:#000000;stop-opacity:1;" />
    </linearGradient>
    <linearGradient
       id="linearGradient5660">
      <stop
         style="stop-color:#fdfe9e;stop-opacity:1;"
         offset="0"
         id="stop5662" />
      <stop
         id="stop5664"
         offset="0.38031119"
         style="stop-color:#fdfe9e;stop-opacity:1;" />
      <stop
         id="stop5666"
         offset="0.64523262"
         style="stop-color:#fbfd5c;stop-opacity:1;" />
      <stop
         style="stop-color:#fdfe9e;stop-opacity:1;"
         offset="0.78712064"
         id="stop5668" />
      <stop
         id="stop5670"
         offset="1"
         style="stop-color:#fdfe9e;stop-opacity:1;" />
    </linearGradient>
    <linearGradient
       id="linearGradient3765">
      <stop
         id="stop4344"
         offset="0"
         style="stop-color:#748ae3;stop-opacity:1;" />
      <stop
         id="stop4342"
         offset="0.8279013"
         style="stop-color:#173cd0;stop-opacity:1;" />
      <stop
         style="stop-color:#000044;stop-opacity:1;"
         offset="0.87914103"
         id="stop5682" />
      <stop
         style="stop-color:#000010;stop-opacity:1;"
         offset="1"
         id="stop4333" />
    </linearGradient>
    <linearGradient
       inkscape:collect="always"
       xlink:href="#linearGradient3765"
       id="linearGradient3771"
       x1="132.78571"
       y1="395.2908"
       x2="592.78571"
       y2="395.2908"
       gradientUnits="userSpaceOnUse"
       gradientTransform="matrix(0.70710678,0.70710678,-0.70710678,0.70710678,0,0)" />
    <linearGradient
       inkscape:collect="always"
       xlink:href="#linearGradient5660"
       id="linearGradient3788"
       x1="206.23714"
       y1="415.35678"
       x2="264.53134"
       y2="415.35678"
       gradientUnits="userSpaceOnUse" />
    <linearGradient
       inkscape:collect="always"
       xlink:href="#linearGradient5660-1"
       id="linearGradient5650-3"
       x1="481.96838"
       y1="386.814"
       x2="560.37158"
       y2="425.14288"
       gradientUnits="userSpaceOnUse" />
    <linearGradient
       id="linearGradient5660-1">
      <stop
         style="stop-color:#fdfe9e;stop-opacity:1;"
         offset="0"
         id="stop5662-6" />
      <stop
         id="stop5664-8"
         offset="0.38031119"
         style="stop-color:#fdfe9e;stop-opacity:1;" />
      <stop
         id="stop5666-8"
         offset="0.64523262"
         style="stop-color:#fbfd5c;stop-opacity:1;" />
      <stop
         style="stop-color:#fdfe9e;stop-opacity:1;"
         offset="0.78712064"
         id="stop5668-2" />
      <stop
         id="stop5670-7"
         offset="1"
         style="stop-color:#fdfe9e;stop-opacity:1;" />
    </linearGradient>
  </defs>
  <sodipodi:namedview
     id="base"
     pagecolor="#ffffff"
     bordercolor="#666666"
     borderopacity="1.0"
     inkscape:pageopacity="0.0"
     inkscape:pageshadow="2"
     inkscape:zoom="1.384308"
     inkscape:cx="111.72344"
     inkscape:cy="189.5475"
     inkscape:document-units="px"
     inkscape:current-layer="g2990"
     showgrid="false"
     showguides="true"
     inkscape:guide-bbox="true"
     inkscape:window-width="1024"
     inkscape:window-height="661"
     inkscape:window-x="4"
     inkscape:window-y="5"
     inkscape:window-maximized="0" />
  <metadata
     id="metadata7">
    <rdf:RDF>
      <cc:Work
         rdf:about="">
        <dc:format>image/svg+xml</dc:format>
        <dc:type
           rdf:resource="http://purl.org/dc/dcmitype/StillImage" />
        <dc:title />
      </cc:Work>
    </rdf:RDF>
  </metadata>
  <g
     inkscape:label="Layer 1"
     inkscape:groupmode="layer"
     id="layer1"
     transform="translate(0,-692.36218)">
    <g
       id="g2990"
       transform="matrix(0.65081122,0,0,0.65081122,-56.105008,615.1025)">
      <rect
         y="166.8092"
         x="134.30412"
         height="456.96317"
         width="456.96317"
         id="rect2989"
         style="opacity:1;fill:#ffffff;fill-opacity:1;fill-rule:nonzero;stroke:#000000;stroke-width:4;stroke-miterlimit:4;stroke-opacity:1;stroke-dasharray:none" />
      <g
         id="g5081"
         transform="translate(-10.530404,0)">
        <path
           id="path5134"
           d="m 373.31612,240.80725 c -96.03141,0 -100.83005,0.16046 -108.41388,4.02954 -4.36321,2.22595 -9.97378,7.01873 -12.53635,10.61752 -2.56256,3.59879 -12.64426,26.68822 -22.38635,51.36068 l -17.7172,44.90061 -9.01849,4.02954 c -11.17581,5.0011 -17.47922,10.77728 -22.51428,20.59544 -3.5638,6.94932 -3.90162,12.58909 -3.90162,66.9032 l 0,59.3558 15.86233,0.6396 15.86233,0.57566 1.02338,25.5844 c 0.56285,14.07141 1.78321,26.83632 2.75032,28.33471 0.96711,1.49839 4.65126,4.49365 8.18701,6.7159 5.02016,3.1552 9.12667,3.86847 18.54868,3.26202 10.73171,-0.69076 12.78569,-1.56703 18.67661,-7.99513 6.46913,-7.05902 6.66424,-7.76482 8.12305,-32.04445 l 1.4711,-24.88082 105.98336,0 105.98335,0 1.4711,24.88082 c 1.45667,24.24379 1.70307,25.03903 8.12305,32.04445 5.65657,6.17239 8.10535,7.25669 17.78116,8.05908 11.7921,0.9779 20.68732,-2.00949 26.41589,-8.89058 2.04793,-2.45992 3.2481,-11.21128 3.96558,-29.29412 l 1.02337,-25.77628 15.86233,-0.57566 15.86232,-0.6396 0,-59.3558 c 0,-54.31411 -0.33781,-59.95388 -3.90161,-66.9032 -5.03505,-9.81816 -11.33849,-15.59434 -22.51428,-20.59544 l -9.01849,-4.02954 -17.71719,-44.90061 c -9.74209,-24.67246 -19.8238,-47.76189 -22.38635,-51.36068 -2.56257,-3.59879 -8.17315,-8.39157 -12.53635,-10.61752 -7.58384,-3.86889 -12.38249,-4.02954 -108.41388,-4.02954 z"
           style="fill:#000000"
           inkscape:connector-curvature="0" />
        <path
           id="path5132"
           d="m 280.57269,269.14197 92.93531,0.25585 92.93532,0.19177 4.79707,4.73312 c 2.84313,2.83486 10.04436,19.18357 17.84511,40.35937 7.2124,19.57858 13.16779,35.85654 13.17597,36.13797 0.0334,1.05059 -255.17481,0.47726 -256.22772,-0.57566 -2.03887,-2.03887 25.14356,-71.48838 29.86978,-76.30545 l 4.66916,-4.79708 z"
           style="fill:#ffffff;fill-opacity:1"
           inkscape:connector-curvature="0" />
        <path
           id="path5130"
           d="m 439.13198,274.77053 c -1.24729,0.039 -2.52807,0.13346 -3.83766,0.38378 -14.88303,2.84505 -20.20713,24.05387 -8.89058,35.37041 8.51285,8.51283 19.9525,8.38221 28.65452,-0.3198 13.91798,-13.91796 2.78313,-36.02069 -15.92628,-35.43439 z"
           style="fill:#000000"
           inkscape:connector-curvature="0" />
        <path
           id="path5128"
           d="m 448.72613,322.80524 c -16.76489,-0.15576 -36.98401,0.84843 -41.38277,2.68636 -7.11694,2.97365 -15.60648,12.16429 -15.60648,16.8857 0,2.28305 8.94926,2.81429 48.93016,2.81429 48.19232,0 48.91486,-0.058 47.84282,-4.15747 -1.38668,-5.30266 -11.45484,-14.89597 -17.46135,-16.62986 -3.46084,-0.99901 -12.26346,-1.5056 -22.32238,-1.59902 z"
           style="fill:#000000"
           inkscape:connector-curvature="0" />
        <path
           id="path4489"
           d="m 511.79166,386.25454 c 16.07173,0 29.10225,13.03052 29.10225,29.10225 0,16.07172 -13.03052,29.10225 -29.10225,29.10225 -16.07173,0 -29.10226,-13.03053 -29.10226,-29.10225 0,-16.07173 13.03053,-29.10225 29.10226,-29.10225 z"
           style="fill:#ffffff;fill-opacity:1;stroke:#ffffff;stroke-width:0.1536544;stroke-miterlimit:4;stroke-opacity:1;stroke-dasharray:none"
           inkscape:connector-curvature="0" />
        <path
           id="path4489-7"
           d="m 234.65155,386.25492 c 16.07173,0 29.10225,13.03052 29.10225,29.10225 0,16.07172 -13.03052,29.10225 -29.10225,29.10225 -16.07173,0 -29.10226,-13.03053 -29.10226,-29.10225 0,-16.07173 13.03053,-29.10225 29.10226,-29.10225 z"
           style="fill:#ffffff;fill-opacity:1;stroke:#ffffff;stroke-width:0.1536544;stroke-miterlimit:4;stroke-opacity:1;stroke-dasharray:none"
           inkscape:connector-curvature="0" />
      </g>
    </g>
  </g>
</svg>
