<?xml version="1.0" encoding="UTF-8" standalone="no"?>
<!-- Created with Inkscape (http://www.inkscape.org/) -->

<svg
   xmlns:dc="http://purl.org/dc/elements/1.1/"
   xmlns:cc="http://creativecommons.org/ns#"
   xmlns:rdf="http://www.w3.org/1999/02/22-rdf-syntax-ns#"
   xmlns:svg="http://www.w3.org/2000/svg"
   xmlns="http://www.w3.org/2000/svg"
   xmlns:xlink="http://www.w3.org/1999/xlink"
   xmlns:sodipodi="http://sodipodi.sourceforge.net/DTD/sodipodi-0.dtd"
   xmlns:inkscape="http://www.inkscape.org/namespaces/inkscape"
   width="360"
   height="360"
   id="svg2"
   version="1.1"
   inkscape:version="0.48.2 r9819"
   sodipodi:docname="webcam.svg"
   inkscape:export-filename="E:\Home\Bogus\Pulpit\KESZE\opencaching4locus\res\drawable-ldpi\cache_type_webcam.png"
   inkscape:export-xdpi="3.5"
   inkscape:export-ydpi="3.5">
  <defs
     id="defs4">
    <linearGradient
       id="linearGradient3765">
      <stop
         id="stop4344"
         offset="0"
         style="stop-color:#868686;stop-opacity:1;" />
      <stop
         style="stop-color:#000000;stop-opacity:1;"
         offset="1"
         id="stop4333" />
    </linearGradient>
    <linearGradient
       inkscape:collect="always"
       xlink:href="#linearGradient3765"
       id="linearGradient3795"
       x1="130.34334"
       y1="161.95747"
       x2="587.38495"
       y2="620.78101"
       gradientUnits="userSpaceOnUse" />
    <linearGradient
       inkscape:collect="always"
       xlink:href="#linearGradient3765"
       id="linearGradient2994"
       gradientUnits="userSpaceOnUse"
       x1="130.34334"
       y1="161.95747"
       x2="587.38495"
       y2="620.78101" />
  </defs>
  <sodipodi:namedview
     id="base"
     pagecolor="#ffffff"
     bordercolor="#666666"
     borderopacity="1.0"
     inkscape:pageopacity="0.0"
     inkscape:pageshadow="2"
     inkscape:zoom="0.66666667"
     inkscape:cx="404.77484"
     inkscape:cy="214.76548"
     inkscape:document-units="px"
     inkscape:current-layer="layer1"
     showgrid="false"
     showguides="true"
     inkscape:guide-bbox="true"
     inkscape:window-width="874"
     inkscape:window-height="619"
     inkscape:window-x="108"
     inkscape:window-y="39"
     inkscape:window-maximized="0" />
  <metadata
     id="metadata7">
    <rdf:RDF>
      <cc:Work
         rdf:about="">
        <dc:format>image/svg+xml</dc:format>
        <dc:type
           rdf:resource="http://purl.org/dc/dcmitype/StillImage" />
        <dc:title></dc:title>
      </cc:Work>
    </rdf:RDF>
  </metadata>
  <g
     inkscape:label="Layer 1"
     inkscape:groupmode="layer"
     id="layer1"
     transform="translate(0,-692.36218)">
    <g
       id="g2990"
       transform="matrix(0.65081122,0,0,0.65081122,-56.105005,615.1025)">
      <rect
         y="166.8092"
         x="134.30412"
         height="456.96317"
         width="456.96317"
         id="rect2989"
         style="opacity:0.8;fill:url(#linearGradient2994);fill-opacity:1;fill-rule:nonzero;stroke:#000000;stroke-width:4;stroke-miterlimit:4;stroke-opacity:1;stroke-dasharray:none" />
      <path
         sodipodi:nodetypes="csssscsscsssssscssssscsccsccsssssssssss"
         inkscape:connector-curvature="0"
         id="path3816"
         d="m 236.99453,516.57318 c -6.62146,-0.71995 -13.17341,-3.10036 -18.79762,-6.82936 -3.02076,-2.00288 -8.8096,-7.79174 -10.81246,-10.8125 -2.91165,-4.39137 -4.93339,-9.13567 -6.20811,-14.56815 -0.65982,-2.81198 -0.66191,-2.98995 -0.76468,-65.63501 -0.10557,-64.33499 -0.0752,-66.31737 1.09303,-71.11767 3.216,-13.21584 13.46897,-24.45342 26.24768,-28.76828 6.31649,-2.13283 4.87429,-2.03778 33.83573,-2.22989 l 26.31666,-0.17461 0.21018,-2.75899 c 1.07033,-14.05044 9.11337,-26.38258 21.56373,-33.063 4.32761,-2.32205 9.0917,-3.7965 14.25487,-4.41178 3.86026,-0.46001 61.93142,-0.46001 65.79168,0 5.16315,0.61528 9.92724,2.08973 14.25483,4.41178 12.45036,6.68042 20.4934,19.01256 21.56374,33.063 l 0.21018,2.75899 26.31667,0.17461 c 28.96144,0.19211 27.51923,0.097 33.83573,2.22989 11.01323,3.71874 20.39037,12.72149 24.53739,23.55774 1.51093,3.94812 2.10814,6.37329 2.55608,10.37987 0.25012,2.23706 0.32082,21.09487 0.24723,65.94834 -0.1027,62.64506 -0.10481,62.82303 -0.76469,65.63501 -1.9778,8.42885 -5.28849,14.44034 -11.21843,20.37032 -5.92765,5.92763 -11.9211,9.22933 -20.37029,11.22167 l -2.81964,0.66491 -119.99146,0.036 c -65.99533,0.0199 -120.48493,-0.0172 -121.08803,-0.083 z m 127.96189,-28.45433 c 27.13201,-3.17379 50.02284,-21.20531 59.50882,-46.87609 2.62719,-7.10967 3.93854,-14.08643 4.17861,-22.23151 0.36666,-12.43955 -1.93571,-23.20649 -7.26238,-33.96219 -3.95236,-7.98065 -8.39168,-14.05261 -14.72672,-20.14276 -19.34782,-18.59991 -46.93901,-24.90207 -72.37612,-16.53158 -15.18644,4.99734 -28.54714,15.24875 -37.58987,28.84201 -4.64229,6.97837 -8.67329,16.72103 -10.33357,24.97545 -2.17875,10.83219 -1.85963,22.30709 0.91613,32.94134 3.23498,12.3936 10.55737,24.66598 20.11364,33.7106 15.46042,14.63267 36.63936,21.72329 57.57146,19.27473 z"
         style="fill:#ffffff;fill-opacity:1;stroke:#000000;stroke-width:7.64990759;stroke-miterlimit:4;stroke-opacity:1;stroke-dasharray:none" />
    </g>
  </g>
</svg>
