<?xml version="1.0" encoding="UTF-8" standalone="no"?>
<!-- Created with Inkscape (http://www.inkscape.org/) -->

<svg
   xmlns:dc="http://purl.org/dc/elements/1.1/"
   xmlns:cc="http://creativecommons.org/ns#"
   xmlns:rdf="http://www.w3.org/1999/02/22-rdf-syntax-ns#"
   xmlns:svg="http://www.w3.org/2000/svg"
   xmlns="http://www.w3.org/2000/svg"
   xmlns:xlink="http://www.w3.org/1999/xlink"
   xmlns:sodipodi="http://sodipodi.sourceforge.net/DTD/sodipodi-0.dtd"
   xmlns:inkscape="http://www.inkscape.org/namespaces/inkscape"
   width="360"
   height="360"
   id="svg2"
   version="1.1"
   inkscape:version="0.48.2 r9819"
   sodipodi:docname="own.svg"
   inkscape:export-filename="E:\Home\Bogus\Pulpit\KESZE\opencaching4locus\res\drawable-ldpi\cache_type_own.png"
   inkscape:export-xdpi="3.5"
   inkscape:export-ydpi="3.5">
  <defs
     id="defs4">
    <linearGradient
       id="linearGradient3765">
      <stop
         id="stop4344"
         offset="0"
         style="stop-color:#868686;stop-opacity:1;" />
      <stop
         style="stop-color:#000000;stop-opacity:1;"
         offset="1"
         id="stop4333" />
    </linearGradient>
    <linearGradient
       inkscape:collect="always"
       xlink:href="#linearGradient3765"
       id="linearGradient3795"
       x1="130.34334"
       y1="161.95747"
       x2="587.38495"
       y2="620.78101"
       gradientUnits="userSpaceOnUse" />
    <linearGradient
       inkscape:collect="always"
       xlink:href="#linearGradient3765"
       id="linearGradient3022"
       gradientUnits="userSpaceOnUse"
       x1="130.34334"
       y1="161.95747"
       x2="587.38495"
       y2="620.78101" />
  </defs>
  <sodipodi:namedview
     id="base"
     pagecolor="#ffffff"
     bordercolor="#666666"
     borderopacity="1.0"
     inkscape:pageopacity="0.0"
     inkscape:pageshadow="2"
     inkscape:zoom="0.51"
     inkscape:cx="386.92309"
     inkscape:cy="99.25058"
     inkscape:document-units="px"
     inkscape:current-layer="layer1"
     showgrid="false"
     showguides="true"
     inkscape:guide-bbox="true"
     inkscape:window-width="874"
     inkscape:window-height="619"
     inkscape:window-x="108"
     inkscape:window-y="39"
     inkscape:window-maximized="0" />
  <metadata
     id="metadata7">
    <rdf:RDF>
      <cc:Work
         rdf:about="">
        <dc:format>image/svg+xml</dc:format>
        <dc:type
           rdf:resource="http://purl.org/dc/dcmitype/StillImage" />
        <dc:title></dc:title>
      </cc:Work>
    </rdf:RDF>
  </metadata>
  <g
     inkscape:label="Layer 1"
     inkscape:groupmode="layer"
     id="layer1"
     transform="translate(0,-692.36218)">
    <g
       id="g3018"
       transform="matrix(0.65081122,0,0,0.65081122,-56.105008,615.1025)">
      <rect
         y="166.8092"
         x="134.30412"
         height="456.96317"
         width="456.96317"
         id="rect2989"
         style="opacity:0.8;fill:url(#linearGradient3022);fill-opacity:1;fill-rule:nonzero;stroke:#000000;stroke-width:4;stroke-miterlimit:4;stroke-opacity:1;stroke-dasharray:none" />
      <path
         inkscape:connector-curvature="0"
         id="path3829"
         d="m 174.01987,590.71048 c 0,-40.49119 21.66008,-89.57654 53.90857,-122.16579 15.0738,-15.23308 34.91651,-30.30292 39.90038,-30.30292 1.39218,0 6.82388,3.05547 12.07044,6.78988 26.00094,18.50713 51.58661,26.27275 85.81592,26.04642 33.39004,-0.2208 57.28584,-7.69845 85.30944,-26.69575 4.96803,-3.36785 9.9481,-6.12721 11.06683,-6.13196 3.21798,-0.0141 21.03017,12.57913 32.96467,23.3051 14.34645,12.89368 32.61584,37.93693 42.48581,58.23852 9.99484,20.5585 17.8613,51.05799 17.8613,69.25122 l 0,13.79361 -190.69169,0 -190.69167,0 0,-12.12833 z M 348.6533,452.34777 c -47.86413,-6.62833 -88.69125,-38.794 -105.30264,-82.96275 -13.2934,-35.34641 -10.58887,-73.98167 7.61534,-108.7876 9.9347,-18.99488 34.7862,-42.6549 55.55929,-52.89554 38.53006,-18.9944 77.72352,-19.00346 116.39741,-0.0269 35.28108,17.3118 61.37077,51.87952 69.38787,91.93595 7.83255,39.1344 -4.31026,81.34237 -32.32116,112.34707 -26.33043,29.14468 -72.24888,45.80264 -111.33611,40.38974 z"
         style="fill:#ffffff;fill-opacity:1;stroke:#000000;stroke-width:4.01456165;stroke-miterlimit:4;stroke-opacity:1;stroke-dasharray:none" />
    </g>
  </g>
</svg>
